<svg xmlns="http://www.w3.org/2000/svg" version="1.1" xmlns:xlink="http://www.w3.org/1999/xlink" viewBox="0 0 200 200"><rect width="200" height="200" fill="url('#gradient')"></rect><defs><linearGradient id="gradient" gradientTransform="rotate(45 0.5 0.5)"><stop offset="0%" stop-color="#070ebe"></stop><stop offset="100%" stop-color="#000000"></stop></linearGradient></defs><g><g fill="#ffffff" transform="matrix(3.1817711030554117,0,0,3.1817711030554117,8.571456085101488,120.68053456701064)" stroke="#0e5278" stroke-width="0.15"><path d="M9.08-7.79L3.74-5.95L9.08-4.15L9.08-1.15L0.45-4.67L0.45-7.27L9.08-10.78L9.08-7.79ZM22.43-14.22L22.43-11.57L18.16-11.57L18.16 0L14.74 0L14.74-11.57L10.55-11.57L10.55-14.22L22.43-14.22ZM23.88-14.22L28.38-14.22L31.55-4.33L34.72-14.22L39.23-14.22L39.23 0L35.79 0L35.79-3.32L36.12-10.12L32.69 0L30.42 0L26.97-10.13L27.30-3.32L27.30 0L23.88 0L23.88-14.22ZM47.25-14.22L42.38 1.22L40.05 1.22L44.90-14.22L47.25-14.22ZM48.44-4.13L53.75-5.98L48.44-7.78L48.44-10.77L57.02-7.26L57.02-4.66L48.44-1.14L48.44-4.13Z"></path></g></g></svg>